# xmcd
# 
# Track frame offsets:
#     150
#     20196
#     43517
#     58841
#     75340
#     100259
#     118131
#     144681
#     162645
#     177500
#     196090
# 
# Disc length: 2911
# 
# Revision: 2
# Processed by: cddbd v1.5.2PL0 Copyright (c) Steve Scherf et al.
# Submitted via: fre:ac v1.0.27
# 
DISCID=9b0b5d0b
DTITLE=Richard Hawley - Lady's Bridge
DYEAR=2007
DGENRE=Blues Rock
TTITLE0=Valentine
TTITLE1=Roll River Roll
TTITLE2=Serious
TTITLE3=Tonight The Streets Are Ours
TTITLE4=Lady Solitude
TTITLE5=Dark Road
TTITLE6=The Sea Calls
TTITLE7=Lady's Bridge
TTITLE8=I'm Looking For Someone To Find Me
TTITLE9=Our Darkness
TTITLE10=The Sun Refused To Shine
EXTD=
EXTT0=
EXTT1=
EXTT2=
EXTT3=
EXTT4=
EXTT5=
EXTT6=
EXTT7=
EXTT8=
EXTT9=
EXTT10=
PLAYORDER=
